<?xml version="1.0" encoding="iso-8859-1"?><!-- Generator: Adobe Illustrator 23.0.3, SVG Export Plug-In . SVG Version: 6.00 Build 0)  --><svg xmlns="http://www.w3.org/2000/svg" xmlns:xlink="http://www.w3.org/1999/xlink" viewBox="0 0 48 48" width="480px" height="480px"><circle style="fill:#13504F;" cx="23" cy="16" r="12"/><circle style="fill:#13A3A9;" cx="33.5" cy="26.5" r="10.5"/><circle style="fill:#1DDAEA;" cx="24" cy="36" r="8"/><path style="fill:#027178;" d="M22.319,34H5.681C4.753,34,4,33.247,4,32.319V15.681C4,14.753,4.753,14,5.681,14h16.638  C23.247,14,24,14.753,24,15.681v16.638C24,33.247,23.247,34,22.319,34z"/><g><path style="fill:#FFFFFF;" d="M10.432,28.75v-2.298c0.426,0.349,2.391,1.048,2.9,1.048c0.299,0,2.138,0.088,2.138-1.041   c0-1.633-5.082-1.494-5.082-4.725c0-0.536,0.066-3.059,4.133-3.059c1.041,0,2.271,0.261,2.628,0.395v2.147   c-0.176-0.12-0.89-0.718-2.496-0.718c-1.877,0-2.04,0.883-2.04,1.041c0,1.359,4.998,1.544,4.998,4.711   c0,3.172-3.614,3.074-4.177,3.074C12.857,29.325,10.814,28.942,10.432,28.75z"/></g></svg>